<?xml version="1.0" encoding="utf-8"?>
<svg viewBox="0 0 1200 375" width="1200px" height="375px" xmlns="http://www.w3.org/2000/svg" xmlns:bx="https://boxy-svg.com">
  <rect x="30" y="183.788" width="113.577" height="173.209" style="stroke-width: 5px; fill-opacity: 0; stroke: rgb(0, 0, 0);"/>
  <line style="stroke: rgb(0, 0, 0); stroke-width: 3px;" x1="46.312" y1="212.756" x2="125.462" y2="212.756"/>
  <line style="stroke: rgb(0, 0, 0); stroke-width: 3px;" x1="46.312" y1="229.462" x2="125.462" y2="229.462"/>
  <line style="stroke: rgb(0, 0, 0); stroke-width: 3px;" x1="46.312" y1="246.168" x2="125.462" y2="246.168"/>
  <line style="stroke: rgb(0, 0, 0); stroke-width: 3px;" x1="46.312" y1="262.873" x2="125.462" y2="262.873"/>
  <line style="stroke: rgb(0, 0, 0); stroke-width: 3px;" x1="46.312" y1="279.578" x2="125.462" y2="279.578"/>
  <line style="stroke: rgb(0, 0, 0); stroke-width: 3px;" x1="46.312" y1="296.283" x2="125.462" y2="296.283"/>
  <line style="stroke: rgb(0, 0, 0); stroke-width: 3px;" x1="46.312" y1="312.988" x2="125.462" y2="312.988"/>
  <line style="stroke: rgb(0, 0, 0); stroke-width: 3px;" x1="46.312" y1="329.694" x2="125.462" y2="329.694"/>
  <path d="M 164.722 272.785 H 200.266 L 200.266 262.762 L 227.022 276.126 L 200.266 289.49 L 200.266 279.468 H 164.722 V 272.785 Z" style="" bx:shape="arrow 164.722 262.762 62.299 26.728 6.682 26.756 0 1@c778d7dd"/>
  <path d="M 386.747 155.714 H 422.29 L 422.29 145.691 L 449.046 159.055 L 422.29 172.419 L 422.29 162.396 H 386.747 V 155.714 Z" style="" bx:shape="arrow 386.747 145.691 62.299 26.728 6.682 26.756 0 1@b77a4244"/>
  <path style="" transform="matrix(-0.640781, 0.640125, -0.640781, -0.640125, 981.068909, -92.227386)" d="M 575.222 164.627 L 580.778 164.627 L 581.95 173.113 A 14.759 14.759 0 0 1 585.262 174.485 L 592.091 169.314 L 596.02 173.242 L 590.849 180.071 A 14.759 14.759 0 0 1 592.22 183.383 L 600.706 184.555 L 600.706 190.111 L 592.22 191.284 A 14.759 14.759 0 0 1 590.849 194.595 L 596.02 201.425 L 592.091 205.353 L 585.262 200.182 A 14.759 14.759 0 0 1 581.95 201.554 L 580.778 210.039 L 575.222 210.039 L 574.05 201.554 A 14.759 14.759 0 0 1 570.738 200.182 L 563.909 205.353 L 559.98 201.425 L 565.151 194.595 A 14.759 14.759 0 0 1 563.78 191.284 L 555.294 190.111 L 555.294 184.555 L 563.78 183.383 A 14.759 14.759 0 0 1 565.151 180.071 L 559.98 173.242 L 563.909 169.314 L 570.738 174.485 A 14.759 14.759 0 0 1 574.05 173.113 Z M 578 180.522 A 6.812 6.812 0 0 0 578 194.145 A 6.812 6.812 0 0 0 578 180.522" bx:shape="cog 578 187.333 6.812 14.759 22.706 0.38 8 1@299fbf6a"/>
  <path d="M 273 162.128 H 293.192 L 293.192 152.094 L 308.391 165.472 L 293.192 178.85 L 293.192 168.816 H 273 V 162.128 Z" style="" transform="matrix(0, -1, 1, 0, 325.120911, 394.3703)" bx:shape="arrow 273 152.094 35.391 26.756 6.689 15.199 0 1@aab75cf4"/>
  <path d="M 1125.984 32.997 C 1125.984 32.997 1119.913 71.536 1105.513 71.037 C 1097.458 70.757 1090.891 55.605 1095.52 49.013 C 1103.459 37.708 1136.861 52.324 1136.861 52.324 C 1136.861 52.324 1148.969 57.323 1154.964 55.944 C 1158.041 55.235 1164.595 52.314 1164.912 48.103 C 1165.23 43.847 1160.201 37.401 1156.154 38.753 C 1146.372 42.019 1159.984 62.057 1152.867 69.516 C 1148.793 73.784 1135.366 72.221 1135.366 72.221" style="stroke: rgb(0, 0, 0); fill: rgb(216, 216, 216); fill-opacity: 0; stroke-width: 5px;" transform="matrix(-0.773365, 0.63396, -0.63396, -0.773365, 2036.378001, -622.487385)"/>
  <circle style="" cx="1084.005" cy="358.114" r="7.727" transform="matrix(0.76, 0, 0, 0.759222, 7.199995, 3.60836)"/>
  <circle style="" cx="1107.202" cy="358.114" r="7.727" transform="matrix(0.76, 0, 0, 0.759222, 7.199995, 3.60836)"/>
  <circle style="" cx="1130.398" cy="358.114" r="7.727" transform="matrix(0.76, 0, 0, 0.759222, 7.199995, 3.60836)"/>
  <rect x="252.223" y="183.788" width="113.577" height="173.209" style="stroke-width: 5px; fill-opacity: 0; stroke: rgb(0, 0, 0);"/>
  <line style="stroke: rgb(0, 0, 0); stroke-width: 3px;" x1="268.536" y1="159.6" x2="347.686" y2="159.6"/>
  <line style="stroke: rgb(0, 0, 0); stroke-width: 3px;" x1="268.536" y1="229.462" x2="347.686" y2="229.462"/>
  <line style="stroke: rgb(0, 0, 0); stroke-width: 3px;" x1="268.536" y1="246.168" x2="347.686" y2="246.168"/>
  <line style="stroke: rgb(0, 0, 0); stroke-width: 3px;" x1="268.536" y1="262.873" x2="347.686" y2="262.873"/>
  <line style="stroke: rgb(0, 0, 0); stroke-width: 3px;" x1="268.536" y1="279.578" x2="347.686" y2="279.578"/>
  <line style="stroke: rgb(0, 0, 0); stroke-width: 3px;" x1="268.536" y1="296.283" x2="347.686" y2="296.283"/>
  <line style="stroke: rgb(0, 0, 0); stroke-width: 3px;" x1="268.536" y1="312.988" x2="347.686" y2="312.988"/>
  <line style="stroke: rgb(0, 0, 0); stroke-width: 3px;" x1="268.536" y1="329.694" x2="347.686" y2="329.694"/>
  <path d="M 672.314 155.714 H 707.858 L 707.858 145.691 L 734.613 159.055 L 707.858 172.419 L 707.858 162.396 H 672.314 V 155.714 Z" style="" bx:shape="arrow 672.314 145.691 62.299 26.728 6.682 26.756 0 1@c785f32b"/>
  <path style="" transform="matrix(-0.640781, 0.640125, -0.640781, -0.640125, 1266.635498, -92.227386)" d="M 575.222 164.627 L 580.778 164.627 L 581.95 173.113 A 14.759 14.759 0 0 1 585.262 174.485 L 592.091 169.314 L 596.02 173.242 L 590.849 180.071 A 14.759 14.759 0 0 1 592.22 183.383 L 600.706 184.555 L 600.706 190.111 L 592.22 191.284 A 14.759 14.759 0 0 1 590.849 194.595 L 596.02 201.425 L 592.091 205.353 L 585.262 200.182 A 14.759 14.759 0 0 1 581.95 201.554 L 580.778 210.039 L 575.222 210.039 L 574.05 201.554 A 14.759 14.759 0 0 1 570.738 200.182 L 563.909 205.353 L 559.98 201.425 L 565.151 194.595 A 14.759 14.759 0 0 1 563.78 191.284 L 555.294 190.111 L 555.294 184.555 L 563.78 183.383 A 14.759 14.759 0 0 1 565.151 180.071 L 559.98 173.242 L 563.909 169.314 L 570.738 174.485 A 14.759 14.759 0 0 1 574.05 173.113 Z M 578 180.522 A 6.812 6.812 0 0 0 578 194.145 A 6.812 6.812 0 0 0 578 180.522" bx:shape="cog 578 187.333 6.812 14.759 22.706 0.38 8 1@299fbf6a"/>
  <path d="M 273 162.128 H 293.192 L 293.192 152.094 L 308.391 165.472 L 293.192 178.85 L 293.192 168.816 H 273 V 162.128 Z" style="" transform="matrix(0, -1, 1, 0, 610.687439, 394.3703)" bx:shape="arrow 273 152.094 35.391 26.756 6.689 15.199 0 1@aab75cf4"/>
  <rect x="537.79" y="183.788" width="113.577" height="173.209" style="stroke-width: 5px; fill-opacity: 0; stroke: rgb(0, 0, 0);"/>
  <line style="stroke: rgb(0, 0, 0); stroke-width: 3px;" x1="554.102" y1="159.6" x2="633.252" y2="159.6"/>
  <line style="stroke: rgb(0, 0, 0); stroke-width: 3px;" x1="554.102" y1="246.168" x2="633.252" y2="246.168"/>
  <line style="stroke: rgb(0, 0, 0); stroke-width: 3px;" x1="554.102" y1="262.873" x2="633.252" y2="262.873"/>
  <line style="stroke: rgb(0, 0, 0); stroke-width: 3px;" x1="554.102" y1="279.578" x2="633.252" y2="279.578"/>
  <line style="stroke: rgb(0, 0, 0); stroke-width: 3px;" x1="554.102" y1="296.283" x2="633.252" y2="296.283"/>
  <line style="stroke: rgb(0, 0, 0); stroke-width: 3px;" x1="554.102" y1="312.988" x2="633.252" y2="312.988"/>
  <line style="stroke: rgb(0, 0, 0); stroke-width: 3px;" x1="554.102" y1="329.694" x2="633.252" y2="329.694"/>
  <path d="M 1036.99 155.714 H 1072.533 L 1072.533 145.691 L 1099.289 159.055 L 1072.533 172.419 L 1072.533 162.396 H 1036.99 V 155.714 Z" style="" bx:shape="arrow 1036.99 145.691 62.299 26.728 6.682 26.756 0 1@c977e3b0"/>
  <path style="" transform="matrix(-0.640781, 0.640125, -0.640781, -0.640125, 1631.311646, -92.227386)" d="M 575.222 164.627 L 580.778 164.627 L 581.95 173.113 A 14.759 14.759 0 0 1 585.262 174.485 L 592.091 169.314 L 596.02 173.242 L 590.849 180.071 A 14.759 14.759 0 0 1 592.22 183.383 L 600.706 184.555 L 600.706 190.111 L 592.22 191.284 A 14.759 14.759 0 0 1 590.849 194.595 L 596.02 201.425 L 592.091 205.353 L 585.262 200.182 A 14.759 14.759 0 0 1 581.95 201.554 L 580.778 210.039 L 575.222 210.039 L 574.05 201.554 A 14.759 14.759 0 0 1 570.738 200.182 L 563.909 205.353 L 559.98 201.425 L 565.151 194.595 A 14.759 14.759 0 0 1 563.78 191.284 L 555.294 190.111 L 555.294 184.555 L 563.78 183.383 A 14.759 14.759 0 0 1 565.151 180.071 L 559.98 173.242 L 563.909 169.314 L 570.738 174.485 A 14.759 14.759 0 0 1 574.05 173.113 Z M 578 180.522 A 6.812 6.812 0 0 0 578 194.145 A 6.812 6.812 0 0 0 578 180.522" bx:shape="cog 578 187.333 6.812 14.759 22.706 0.38 8 1@299fbf6a"/>
  <path d="M 273 162.128 H 293.192 L 293.192 152.094 L 308.391 165.472 L 293.192 178.85 L 293.192 168.816 H 273 V 162.128 Z" style="" transform="matrix(0, -1, 1, 0, 975.363586, 394.3703)" bx:shape="arrow 273 152.094 35.391 26.756 6.689 15.199 0 1@aab75cf4"/>
  <rect x="902.467" y="183.788" width="113.577" height="173.209" style="stroke-width: 5px; fill-opacity: 0; stroke: rgb(0, 0, 0);"/>
  <line style="stroke: rgb(0, 0, 0); stroke-width: 3px;" x1="918.778" y1="159.6" x2="997.929" y2="159.6"/>
  <path d="M 733.21 60.496 C 733.21 60.496 745.318 65.495 751.313 64.115 C 754.389 63.407 760.944 60.485 761.259 56.274 C 761.578 52.019 756.549 45.573 752.501 46.925 C 742.721 50.191 756.333 70.229 749.215 77.688 C 745.142 81.957 731.713 80.393 731.713 80.393" style="stroke: rgb(0, 0, 0); fill: rgb(216, 216, 216); fill-opacity: 0; stroke-width: 5px;" transform="matrix(-0.773365, 0.63396, -0.63396, -0.773365, 1364.193285, -360.270688)"/>
  <path d="M 476.408 43.985 C 466.627 47.252 480.239 67.29 473.121 74.748 C 469.048 79.017 455.62 77.453 455.62 77.453" style="stroke: rgb(0, 0, 0); fill: rgb(216, 216, 216); fill-opacity: 0; stroke-width: 5px;" transform="matrix(-0.773365, 0.63396, -0.63396, -0.773365, 864.995231, -187.509455)"/>
</svg>