<?xml version="1.0" encoding="UTF-8" standalone="no"?>
<!DOCTYPE svg PUBLIC "-//W3C//DTD SVG 1.1//EN" "http://www.w3.org/Graphics/SVG/1.1/DTD/svg11.dtd">
<svg width="300" height="48" viewBox="0 0 300 48" version="1.1" xmlns="http://www.w3.org/2000/svg" xmlns:xlink="http://www.w3.org/1999/xlink" xml:space="preserve" xmlns:serif="http://www.serif.com/" style="fill-rule:evenodd;clip-rule:evenodd;stroke-linejoin:round;stroke-miterlimit:2;">
    <g transform="matrix(0.56926,0,0,0.56926,0,0)">
        <path d="M135.783,59.347C136.392,59.403 137.083,59.458 137.858,59.513L140.763,59.513C147.237,59.513 152.023,57.881 155.122,54.616C158.276,51.352 159.853,46.842 159.853,41.087C159.853,35.056 158.359,30.491 155.371,27.392C152.383,24.294 147.652,22.744 141.178,22.744C140.293,22.744 139.38,22.772 138.439,22.827C138.068,22.827 137.705,22.836 137.351,22.853C136.45,22.897 135.783,23.666 135.783,24.568L135.783,59.347ZM173.216,41.087C173.216,46.067 172.441,50.411 170.892,54.118C169.343,57.826 167.129,60.897 164.252,63.331C161.43,65.766 157.972,67.592 153.877,68.809C149.782,70.027 145.19,70.635 140.099,70.635C137.775,70.635 135.064,70.525 131.965,70.303C129.364,70.164 126.801,69.868 124.278,69.417C123.436,69.267 122.835,68.527 122.835,67.672L122.835,13.116C125.823,12.563 128.922,12.203 132.131,12.037C135.396,11.816 138.19,11.705 140.514,11.705C145.439,11.705 149.893,12.259 153.877,13.365C157.916,14.472 161.375,16.215 164.252,18.594C167.129,20.974 169.343,24.017 170.892,27.724C172.441,31.432 173.216,35.886 173.216,41.087Z" style="fill:white;fill-rule:nonzero;"/>
    </g>
    <g transform="matrix(0.56926,0,0,0.56926,0,0)">
        <path d="M199.262,41.087C199.262,43.909 199.594,46.455 200.258,48.723C200.977,50.992 201.973,52.956 203.246,54.616C204.574,56.221 206.178,57.466 208.06,58.351C209.941,59.237 212.099,59.679 214.534,59.679C216.913,59.679 219.043,59.237 220.925,58.351C222.861,57.466 224.466,56.221 225.739,54.616C227.067,52.956 228.063,50.992 228.727,48.723C229.446,46.455 229.806,43.909 229.806,41.087C229.806,38.265 229.446,35.72 228.727,33.451C228.063,31.127 227.067,29.163 225.739,27.558C224.466,25.898 222.861,24.626 220.925,23.74C219.043,22.855 216.913,22.412 214.534,22.412C212.099,22.412 209.941,22.883 208.06,23.823C206.178,24.709 204.574,25.981 203.246,27.641C201.973,29.246 200.977,31.21 200.258,33.534C199.594,35.803 199.262,38.321 199.262,41.087ZM243.169,41.087C243.169,46.012 242.422,50.356 240.928,54.118C239.489,57.826 237.497,60.952 234.952,63.497C232.406,65.987 229.363,67.869 225.822,69.141C222.336,70.414 218.573,71.05 214.534,71.05C210.605,71.05 206.898,70.414 203.412,69.141C199.926,67.869 196.882,65.987 194.282,63.497C191.681,60.952 189.634,57.826 188.14,54.118C186.646,50.356 185.899,46.012 185.899,41.087C185.899,36.163 186.673,31.847 188.223,28.139C189.772,24.377 191.847,21.223 194.448,18.677C197.104,16.132 200.147,14.223 203.578,12.95C207.064,11.678 210.716,11.041 214.534,11.041C218.462,11.041 222.17,11.678 225.656,12.95C229.142,14.223 232.185,16.132 234.786,18.677C237.386,21.223 239.434,24.377 240.928,28.139C242.422,31.847 243.169,36.163 243.169,41.087Z" style="fill:white;fill-rule:nonzero;"/>
    </g>
    <g transform="matrix(0.56926,0,0,0.56926,0,0)">
        <path d="M275.584,11.705C284.16,11.705 290.745,13.227 295.338,16.27C299.93,19.258 302.227,24.183 302.227,31.044C302.227,37.961 299.903,42.969 295.255,46.067C290.607,49.111 283.967,50.632 275.335,50.632L273.066,50.632C272.073,50.632 271.268,51.437 271.268,52.431L271.268,69.888L260.118,69.888C259.125,69.888 258.32,69.083 258.32,68.09L258.32,13.199C261.141,12.646 264.13,12.259 267.284,12.037C270.438,11.816 273.204,11.705 275.584,11.705ZM276.414,22.744C275.473,22.744 274.532,22.772 273.592,22.827C273.359,22.842 273.135,22.856 272.918,22.871C271.984,22.933 271.268,23.713 271.268,24.648L271.268,39.593L275.335,39.593C279.817,39.593 283.192,38.984 285.461,37.767C287.729,36.55 288.864,34.281 288.864,30.961C288.864,29.357 288.559,28.029 287.951,26.977C287.397,25.926 286.567,25.096 285.461,24.487C284.409,23.823 283.109,23.381 281.56,23.159C280.01,22.883 278.295,22.744 276.414,22.744Z" style="fill:white;fill-rule:nonzero;"/>
    </g>
    <g transform="matrix(0.56926,0,0,0.56926,0,0)">
        <path d="M333.356,11.705C341.933,11.705 348.517,13.227 353.11,16.27C357.703,19.258 359.999,24.183 359.999,31.044C359.999,37.961 357.675,42.969 353.027,46.067C348.379,49.111 341.739,50.632 333.107,50.632L330.838,50.632C329.845,50.632 329.04,51.437 329.04,52.431L329.04,69.888L317.89,69.888C316.897,69.888 316.092,69.083 316.092,68.09L316.092,13.199C318.914,12.646 321.902,12.259 325.056,12.037C328.21,11.816 330.977,11.705 333.356,11.705ZM334.186,22.744C333.245,22.744 332.305,22.772 331.364,22.827C331.132,22.842 330.907,22.856 330.69,22.871C329.757,22.933 329.04,23.713 329.04,24.648L329.04,39.593L333.107,39.593C337.589,39.593 340.964,38.984 343.233,37.767C345.502,36.55 346.636,34.281 346.636,30.961C346.636,29.357 346.332,28.029 345.723,26.977C345.17,25.926 344.34,25.096 343.233,24.487C342.182,23.823 340.881,23.381 339.332,23.159C337.783,22.883 336.067,22.744 334.186,22.744Z" style="fill:white;fill-rule:nonzero;"/>
    </g>
    <g transform="matrix(0.56926,0,0,0.56926,0,0)">
        <path d="M410.14,58.766C410.472,58.766 410.74,59.035 410.74,59.366L410.74,69.289C410.74,69.62 410.472,69.888 410.14,69.888L375.663,69.888C374.67,69.888 373.865,69.083 373.865,68.09L373.865,17.31C373.865,16.5 374.405,15.79 375.186,15.575L386.813,12.369L386.813,58.766L410.14,58.766Z" style="fill:white;fill-rule:nonzero;"/>
    </g>
    <g transform="matrix(0.56926,0,0,0.56926,0,0)">
        <path d="M426.789,69.888C425.796,69.888 424.991,69.083 424.991,68.09L424.991,12.369L464.944,12.369C465.344,12.369 465.632,12.753 465.52,13.137L462.694,22.811C462.62,23.066 462.385,23.242 462.119,23.242L439.737,23.242C438.744,23.242 437.939,24.047 437.939,25.041L437.939,34.53L458.554,34.53C458.953,34.53 459.241,34.914 459.129,35.297L456.384,44.722C456.31,44.978 456.075,45.154 455.809,45.154L439.737,45.154C438.744,45.154 437.939,45.959 437.939,46.953L437.939,59.015L466.05,59.015C466.449,59.015 466.737,59.398 466.626,59.782L463.817,69.456C463.743,69.712 463.508,69.888 463.242,69.888L426.789,69.888Z" style="fill:white;fill-rule:nonzero;"/>
    </g>
    <g transform="matrix(0.56926,0,0,0.56926,0,0)">
        <path d="M496.532,11.705C505.164,11.705 511.776,13.255 516.369,16.353C520.962,19.397 523.258,24.155 523.258,30.629C523.258,34.669 522.317,37.961 520.436,40.506C518.61,42.996 515.954,44.961 512.468,46.399C513.63,47.838 514.847,49.498 516.12,51.379C517.393,53.205 518.638,55.142 519.855,57.189C521.128,59.181 522.345,61.284 523.507,63.497C524.512,65.363 525.455,67.209 526.335,69.034C526.527,69.43 526.237,69.888 525.797,69.888L512.571,69.888C512.354,69.888 512.154,69.771 512.047,69.581C511.05,67.799 510.029,65.993 508.982,64.161C507.931,62.225 506.824,60.343 505.662,58.517C504.555,56.691 503.449,54.976 502.342,53.371C501.235,51.711 500.129,50.217 499.022,48.889L494.43,48.889C493.436,48.889 492.631,49.694 492.631,50.688L492.631,69.888L481.482,69.888C480.488,69.888 479.683,69.083 479.683,68.09L479.683,13.199C482.505,12.646 485.41,12.259 488.398,12.037C491.441,11.816 494.153,11.705 496.532,11.705ZM497.279,22.744C496.338,22.744 495.481,22.772 494.706,22.827C494.563,22.838 494.421,22.849 494.281,22.86C493.348,22.933 492.631,23.713 492.631,24.648L492.631,38.597L496.283,38.597C501.152,38.597 504.638,37.989 506.741,36.771C508.844,35.554 509.895,33.479 509.895,30.546C509.895,27.724 508.816,25.732 506.658,24.57C504.555,23.353 501.429,22.744 497.279,22.744Z" style="fill:white;fill-rule:nonzero;"/>
    </g>
    <g transform="matrix(0.56926,0,0,0.56926,0,0)">
        <path d="M1.524,0C0.861,0 0.468,0.732 0.825,1.291L15.706,24.582C16.936,26.508 19.057,27.674 21.343,27.674L41.47,27.674C48.847,27.674 53.459,34.197 53.432,41.5C53.405,48.803 48.49,55.261 41.47,55.261L19.982,55.261C18.749,55.261 17.754,56.261 17.754,57.494L17.754,80.77C17.754,82.002 18.747,83 19.979,83L47.427,83C71.178,83 82.986,60.466 83,41.5C83.015,22.534 71.345,0 47.427,0L1.524,0ZM11.287,55.326L5.943,55.326C2.661,55.326 0,58.422 0,62.242L0,82.39C0,82.721 0.268,82.989 0.599,82.989L5.943,82.989C9.225,82.989 11.886,79.893 11.886,76.073L11.886,55.925C11.886,55.594 11.618,55.326 11.287,55.326Z" style="fill:url(#_Linear1);"/>
    </g>
    <defs>
        <linearGradient id="_Linear1" x1="0" y1="0" x2="1" y2="0" gradientUnits="userSpaceOnUse" gradientTransform="matrix(-58.6542,78.6708,-78.6708,-58.6542,66.2481,-2.76031)"><stop offset="0" style="stop-color:rgb(64,159,248);stop-opacity:1"/><stop offset="0.04" style="stop-color:rgb(64,159,248);stop-opacity:1"/><stop offset="0.5" style="stop-color:rgb(22,115,255);stop-opacity:1"/><stop offset="1" style="stop-color:rgb(81,111,247);stop-opacity:1"/></linearGradient>
    </defs>
</svg>
