<?xml version="1.0" encoding="UTF-8" standalone="no"?>
<!DOCTYPE svg PUBLIC "-//W3C//DTD SVG 1.1//EN" "http://www.w3.org/Graphics/SVG/1.1/DTD/svg11.dtd">
<svg width="300" height="49" viewBox="0 0 300 49" version="1.1" xmlns="http://www.w3.org/2000/svg" xmlns:xlink="http://www.w3.org/1999/xlink" xml:space="preserve" xmlns:serif="http://www.serif.com/" style="fill-rule:evenodd;clip-rule:evenodd;stroke-linejoin:round;stroke-miterlimit:2;">
    <g transform="matrix(0.331397,0,0,0.331397,0,0)">
        <path d="M42.44,49.74L5.44,49.74L5.44,82.4L33.24,82.4L33.24,87L5.41,87L5.41,127.94L-0,127.94L-0,45.14L42.44,45.14L42.44,49.74Z" style="fill:rgb(62,62,62);fill-rule:nonzero;"/>
        <path d="M52.44,127.94L47,127.94L47,85.85L44.85,66.42L50,66.42L52.07,83.67C56.07,75.27 62.42,65.84 72.89,65.84C83,65.84 85.68,76 85.68,84.24L80.27,84.24C80.16,78.61 79.81,70.44 72.45,70.44C66.24,70.44 52.45,80.1 52.45,103.22L52.44,127.94Z" style="fill:rgb(62,62,62);fill-rule:nonzero;"/>
        <path d="M92.34,97.47C92.34,73.78 104.53,65.84 115.57,65.84C125.69,65.84 138.92,72.63 138.92,97.47C138.92,122.31 125.81,129.21 115.57,129.21C105.33,129.21 92.34,122.31 92.34,97.47ZM133.51,97.47C133.51,85.62 130.51,70.47 115.57,70.47C100.63,70.47 97.74,85.65 97.74,97.47C97.74,109.29 100.74,124.61 115.57,124.61C130.4,124.61 133.51,109.31 133.51,97.47Z" style="fill:rgb(62,62,62);fill-rule:nonzero;"/>
        <path d="M153.87,127.94L148.46,127.94L148.46,97.47C148.46,87.12 148.12,76.77 146.04,66.42L151.1,66.42L153.29,83.9L153.52,83.9C155.82,74.81 165.52,65.84 175.14,65.84C186.14,65.84 189.29,75.38 189.29,84.59L189.29,127.95L183.88,127.95L183.88,87.12C183.88,80.12 183.88,70.44 174.45,70.44C165.71,70.44 153.86,79.18 153.86,102.87L153.87,127.94Z" style="fill:rgb(62,62,62);fill-rule:nonzero;"/>
        <path d="M238.74,71.71L216.43,71.71L216.43,113.23C216.43,119.1 218.62,124.62 226.09,124.62C232.88,124.62 237.59,119.56 240.24,113.81L245.41,115.07C241.62,122.89 234.94,129.22 225.86,129.22C218,129.21 211,125.41 211,110L211,71.71L197.34,71.71L197.34,67.11L211,67.11L211,47.56L216.41,47.56L216.41,67.11L238.72,67.11L238.74,71.71Z" style="fill:rgb(62,62,62);fill-rule:nonzero;"/>
        <path d="M297,123.69C290,126.79 283.08,129.21 275.26,129.21C257.43,129.21 250.88,113.21 250.88,97.81C250.88,82.41 257.67,65.81 275.61,65.81C285.85,65.81 297.92,73.17 297.92,98.36L256.33,98.36C257.33,119.75 266.22,124.58 275.54,124.58C282.44,124.58 289,122.05 294.75,118.58L297,123.69ZM292.51,93.79C293.09,83.32 286.88,70.44 274.91,70.44C262.94,70.44 255.91,83.09 256.28,93.79L292.51,93.79Z" style="fill:rgb(62,62,62);fill-rule:nonzero;"/>
        <path d="M312.56,127.94L307.15,127.94L307.15,97.47C307.15,87.12 306.8,76.77 304.73,66.42L309.79,66.42L312,83.9L312.23,83.9C314.53,74.81 324.23,65.84 333.85,65.84C344.85,65.84 348,75.38 348,84.59L348,127.95L342.59,127.95L342.59,87.12C342.59,80.12 342.59,70.44 333.16,70.44C324.42,70.44 312.57,79.18 312.57,102.87L312.56,127.94Z" style="fill:rgb(62,62,62);fill-rule:nonzero;"/>
        <path d="M401.57,106.55C401.57,114.02 402.15,121.38 404.33,128.55L399.27,129.24L397.09,119.24C394.103,125.442 387.753,129.357 380.87,129.24C370.63,129.24 357.29,120.85 357.29,97.15C357.29,72.77 372.82,65.87 381.21,65.87C386.649,65.849 391.939,67.672 396.21,71.04L396.21,42.61L401.62,42.61L401.57,106.55ZM396.16,76.42C392.37,73.09 387.65,70.42 382.59,70.42C375.69,70.42 362.69,75.14 362.69,97.42C362.69,118.42 374.07,124.56 380.98,124.56C388.69,124.56 393.63,118.92 396.16,112.37L396.16,76.42Z" style="fill:rgb(62,62,62);fill-rule:nonzero;"/>
    </g>
    <g transform="matrix(0.331397,0,0,0.331397,0,0)">
        <path d="M684.14,94.33C684.22,94.75 684.283,95.17 684.33,95.59C684.377,96.01 684.397,96.43 684.39,96.85C684.376,99.846 683.315,102.744 681.39,105.04C678.555,108.822 675.482,112.419 672.19,115.81C669.665,118.419 666.973,120.861 664.13,123.12C662.126,124.728 659.973,126.141 657.7,127.34C656.348,128.118 654.843,128.592 653.29,128.73C651.284,128.711 649.315,128.192 647.56,127.22C645.708,126.253 644.225,124.703 643.34,122.81C643.347,121.749 643.474,120.692 643.72,119.66C644.051,118.3 644.472,116.964 644.98,115.66C645.567,114.107 646.387,112.217 647.44,109.99C648.493,107.763 649.857,104.97 651.53,101.61C650.197,101.61 649.313,101.943 648.88,102.61C644.933,107.903 641.553,112.237 638.74,115.61C635.927,118.983 633.51,121.65 631.49,123.61C630.009,125.16 628.327,126.505 626.49,127.61C625.416,128.245 624.205,128.612 622.96,128.68C619.179,128.323 615.74,126.317 613.57,123.2C611.235,119.679 610.066,115.512 610.23,111.29C610.174,105.12 611.35,99 613.69,93.29C615.809,88.06 618.749,83.202 622.4,78.9C625.666,75.042 629.594,71.797 634,69.32C637.641,67.167 641.771,65.977 646,65.86C648.582,65.784 651.148,66.301 653.5,67.37C655.976,68.711 658.177,70.506 659.99,72.66C662.589,70.797 665.403,69.253 668.37,68.06C670.072,67.339 671.878,66.894 673.72,66.74C675.272,66.718 676.72,67.538 677.5,68.88C677.08,70.48 676.493,72.48 675.74,74.88C674.987,77.28 674.167,79.8 673.28,82.44C672.4,85.107 671.497,87.773 670.57,90.44C669.643,93.107 668.787,95.627 668,98C667.247,100.353 666.58,102.41 666,104.17C665.58,105.402 665.262,106.666 665.05,107.95C665.05,108.79 665.597,109.21 666.69,109.21C667.312,109.115 667.909,108.901 668.45,108.58C669.655,107.913 670.793,107.133 671.85,106.25C673.277,105.117 675,103.583 677.02,101.65C679.04,99.717 681.413,97.277 684.14,94.33ZM655,80.6C652.647,78.42 650.42,77.327 648.32,77.32C646.473,77.32 644.417,78.287 642.15,80.22C639.674,82.388 637.511,84.889 635.72,87.65C633.682,90.745 632.004,94.063 630.72,97.54C629.438,100.814 628.761,104.294 628.72,107.81C628.658,108.773 628.926,109.729 629.48,110.52C629.923,111.117 630.627,111.466 631.37,111.46C632.123,111.46 633.403,110.577 635.21,108.81C637.396,106.611 639.437,104.273 641.32,101.81C643.587,98.91 645.94,95.613 648.38,91.92C650.777,88.261 652.987,84.483 655,80.6Z" style="fill:rgb(192,45,40);fill-rule:nonzero;"/>
        <path d="M692.58,80.6C692.985,78.208 693.751,75.892 694.85,73.73C695.858,71.709 697.151,69.843 698.69,68.19C700.066,66.708 701.686,65.474 703.48,64.54C705.092,63.687 706.886,63.234 708.71,63.22C710.385,63.185 712.01,63.794 713.25,64.92C714.585,66.21 715.43,67.925 715.64,69.77C714.991,71.04 714.188,72.225 713.25,73.3C712.243,74.48 711.15,75.657 709.97,76.83C710.218,78.794 710.771,80.707 711.61,82.5C712.53,84.6 713.497,86.847 714.51,89.24C715.545,91.711 716.45,94.234 717.22,96.8C718.023,99.476 718.427,102.256 718.42,105.05C718.361,108.098 717.396,111.061 715.65,113.56C713.729,116.45 711.367,119.021 708.65,121.18C705.843,123.443 702.724,125.288 699.39,126.66C696.364,127.975 693.109,128.682 689.81,128.74C686.976,128.779 684.152,128.399 681.43,127.61C679.18,126.959 677.037,125.982 675.07,124.71C673.44,123.676 672.044,122.314 670.97,120.71C670.058,119.369 669.554,117.792 669.52,116.17C669.506,114.132 669.827,112.105 670.47,110.17C671.23,108.081 672.314,106.124 673.68,104.37C674.347,103.53 675.44,102.25 676.96,100.53C678.48,98.81 680.147,96.857 681.96,94.67C683.767,92.49 685.637,90.18 687.57,87.74C689.368,85.452 691.04,83.069 692.58,80.6ZM695,91.31C694.16,92.49 693.09,93.823 691.79,95.31C690.49,96.797 689.083,98.373 687.57,100.04C686.057,101.68 684.483,103.347 682.85,105.04C681.217,106.733 679.683,108.33 678.25,109.83C680.073,112.239 682.34,114.276 684.93,115.83C687.087,117.176 689.568,117.916 692.11,117.97C694.081,117.991 695.976,117.194 697.34,115.77C698.807,114.303 699.543,112.097 699.55,109.15C699.54,107.623 699.373,106.102 699.05,104.61C698.713,103.016 698.292,101.44 697.79,99.89C697.283,98.337 696.78,96.823 696.28,95.35C695.78,93.877 695.353,92.53 695,91.31Z" style="fill:rgb(192,45,40);fill-rule:nonzero;"/>
        <path d="M767.29,94.59C767.37,95.01 767.433,95.43 767.48,95.85C767.48,96.27 767.54,96.69 767.54,97.11C767.583,100.116 766.514,103.034 764.54,105.3C761.508,109.437 758.136,113.313 754.46,116.89C751.745,119.523 748.815,121.925 745.7,124.07C743.535,125.585 741.182,126.812 738.7,127.72C737.124,128.303 735.468,128.64 733.79,128.72C727.864,128.735 722.541,124.985 720.56,119.4L732.03,82.4L729,83C728.524,81.577 728.267,80.09 728.24,78.59C728.292,76.642 728.785,74.731 729.68,73C730.353,71.553 731.425,70.328 732.77,69.47L736.17,69.09L741.46,52.58C743.478,52.075 745.55,51.819 747.63,51.82C750.071,51.745 752.494,52.263 754.69,53.33C756.398,54.078 757.69,55.543 758.22,57.33L755.22,67.16L767.22,65.9C767.099,67.728 766.652,69.52 765.9,71.19C765.102,73.017 764.019,74.704 762.69,76.19L751.69,78.58L743.37,106.68C743.37,109.54 744.253,110.967 746.02,110.96C747.353,110.96 749.747,109.783 753.2,107.43C756.653,105.077 761.35,100.797 767.29,94.59Z" style="fill:rgb(192,45,40);fill-rule:nonzero;"/>
        <path d="M820.84,92.95C821.014,93.863 821.098,94.791 821.09,95.72C820.964,97.34 820.604,98.933 820.02,100.45C819.457,102.042 818.672,103.547 817.69,104.92C811.81,112.82 805.847,118.763 799.8,122.75C794.322,126.565 787.825,128.656 781.15,128.75C774.263,128.75 769.097,126.987 765.65,123.46C762.203,119.933 760.48,115.23 760.48,109.35C760.496,107.126 760.751,104.91 761.24,102.74C761.698,100.577 762.286,98.443 763,96.35C764.536,91.932 766.655,87.738 769.3,83.88C771.729,80.293 774.632,77.05 777.93,74.24C780.933,71.691 784.305,69.611 787.93,68.07C791.21,66.646 794.744,65.897 798.32,65.87C803.527,65.87 807.497,66.983 810.23,69.21C812.975,71.478 814.493,74.914 814.32,78.47C814.295,79.869 814.038,81.255 813.56,82.57C813.092,83.994 812.418,85.341 811.56,86.57C810.571,87.7 809.449,88.707 808.22,89.57C806.079,91.148 803.849,92.6 801.54,93.92C798.807,95.52 795.613,97.187 791.96,98.92C788.066,100.759 784.073,102.382 780,103.78C779.905,104.279 779.841,104.783 779.81,105.29C779.81,105.88 779.75,106.51 779.75,107.18C779.676,109.261 780.449,111.287 781.89,112.79C783.317,114.263 785.627,115 788.82,115C792.433,115 796.927,113.333 802.3,110C807.673,106.667 813.853,100.983 820.84,92.95ZM794,75.94C793.198,76.075 792.454,76.444 791.86,77C790.693,77.997 789.681,79.163 788.86,80.46C787.581,82.374 786.445,84.379 785.46,86.46C784.141,89.266 783.044,92.172 782.18,95.15C785.56,93.695 788.844,92.025 792.01,90.15C793.825,89.1 795.505,87.83 797.01,86.37C798.218,84.847 798.849,82.944 798.79,81C798.79,77.627 797.193,75.94 794,75.94Z" style="fill:rgb(192,45,40);fill-rule:nonzero;"/>
        <path d="M871,94.33C871.179,94.725 871.265,95.156 871.25,95.59L871.25,96.85C871.242,98.315 870.964,99.766 870.43,101.13C869.895,102.538 869.15,103.856 868.22,105.04C865.296,108.979 862.12,112.724 858.71,116.25C856.175,118.874 853.458,121.317 850.58,123.56C848.588,125.152 846.408,126.496 844.09,127.56C842.647,128.249 841.086,128.656 839.49,128.76C837.067,128.763 834.697,128.038 832.69,126.68C830.355,125.02 828.487,122.784 827.27,120.19C827.611,117.686 828.312,115.244 829.35,112.94C830.577,110.112 831.966,107.358 833.51,104.69C835.15,101.837 836.873,99.003 838.68,96.19C840.487,93.377 842.153,90.71 843.68,88.19C843.674,87.666 843.498,87.157 843.18,86.74C842.636,86.137 841.948,85.683 841.18,85.42C840.087,85 838.91,84.58 837.65,84.16C836.39,83.74 835.39,83.363 834.65,83.03C832.65,86.223 830.34,89.557 827.72,93.03C825.1,96.503 822.39,99.907 819.59,103.24C816.777,106.573 813.943,109.723 811.09,112.69C808.547,115.378 805.857,117.922 803.03,120.31C802.367,119.736 801.867,118.998 801.58,118.17C801.278,117.278 801.13,116.342 801.14,115.4C801.14,114.311 801.308,113.228 801.64,112.19C801.966,111.162 802.478,110.203 803.15,109.36C805.805,107.314 808.253,105.013 810.46,102.49C812.959,99.706 815.296,96.781 817.46,93.73C819.6,90.703 821.51,87.827 823.19,85.1C824.87,82.373 826.087,80.253 826.84,78.74C825.418,76.663 824.671,74.197 824.7,71.68C824.748,68.349 825.827,65.112 827.79,62.42C829.559,59.812 832.403,58.124 835.54,57.82C835.617,58.966 835.874,60.093 836.3,61.16C836.896,62.412 837.831,63.473 839,64.22C840.941,65.499 843.009,66.575 845.17,67.43C847.837,68.563 851.45,69.843 856.01,71.27C858.134,71.87 860.154,72.79 862,74C863.387,75.007 864.08,76.73 864.08,79.17C863.233,81.748 862.135,84.237 860.8,86.6C859.28,89.407 857.68,92.207 856,95C854.32,97.793 852.767,100.46 851.34,103C850.134,105.031 849.202,107.214 848.57,109.49C848.544,110.027 848.779,110.546 849.2,110.88C849.59,111.205 850.082,111.382 850.59,111.38C851.546,111.204 852.451,110.818 853.24,110.25C854.854,109.245 856.41,108.15 857.9,106.97C860.03,105.296 862.07,103.511 864.01,101.62C866.223,99.453 868.553,97.023 871,94.33Z" style="fill:rgb(192,45,40);fill-rule:nonzero;"/>
        <path d="M879.43,80.6C879.835,78.208 880.601,75.892 881.7,73.73C882.708,71.709 884.001,69.843 885.54,68.19C886.916,66.708 888.536,65.474 890.33,64.54C891.942,63.687 893.736,63.234 895.56,63.22C897.235,63.185 898.86,63.794 900.1,64.92C901.435,66.21 902.28,67.925 902.49,69.77C901.841,71.04 901.038,72.225 900.1,73.3C899.093,74.48 898,75.657 896.82,76.83C897.068,78.794 897.621,80.707 898.46,82.5C899.38,84.6 900.347,86.847 901.36,89.24C902.395,91.711 903.3,94.234 904.07,96.8C904.873,99.476 905.277,102.256 905.27,105.05C905.211,108.098 904.246,111.061 902.5,113.56C900.579,116.45 898.217,119.021 895.5,121.18C892.693,123.443 889.574,125.288 886.24,126.66C883.214,127.975 879.959,128.682 876.66,128.74C873.826,128.779 871.002,128.399 868.28,127.61C866.03,126.959 863.887,125.982 861.92,124.71C860.29,123.676 858.894,122.314 857.82,120.71C856.908,119.369 856.404,117.792 856.37,116.17C856.356,114.132 856.677,112.105 857.32,110.17C858.08,108.081 859.164,106.124 860.53,104.37C861.197,103.53 862.29,102.25 863.81,100.53C865.33,98.81 866.997,96.857 868.81,94.67C870.617,92.49 872.487,90.18 874.42,87.74C876.218,85.452 877.89,83.069 879.43,80.6ZM881.82,91.31C880.98,92.49 879.91,93.823 878.61,95.31C877.31,96.797 875.903,98.373 874.39,100.04C872.877,101.68 871.303,103.347 869.67,105.04C868.037,106.733 866.503,108.33 865.07,109.83C866.893,112.239 869.16,114.276 871.75,115.83C873.907,117.176 876.388,117.916 878.93,117.97C880.901,117.991 882.796,117.194 884.16,115.77C885.627,114.303 886.363,112.097 886.37,109.15C886.36,107.623 886.193,106.102 885.87,104.61C885.533,103.016 885.112,101.44 884.61,99.89C884.103,98.337 883.6,96.823 883.1,95.35C882.6,93.877 882.177,92.53 881.83,91.31L881.82,91.31Z" style="fill:rgb(192,45,40);fill-rule:nonzero;"/>
        <path d="M623.17,22.41C620.29,29.937 617.567,38.017 615,46.65C612.433,55.283 610.233,63.777 608.4,72.13C606.52,80.49 604.997,88.457 603.83,96.03C602.772,102.425 602.19,108.889 602.09,115.37C602.047,117.614 602.354,119.851 603,122C603.444,123.641 604.405,125.097 605.74,126.15C603.916,128.513 601.472,130.324 598.68,131.38C595.914,132.508 592.957,133.098 589.97,133.12C586.076,133.23 582.281,131.865 579.35,129.3C576.45,126.767 575,122.457 575,116.37C575.074,113.285 575.351,110.208 575.83,107.16C576.383,103.233 577.187,98.78 578.24,93.8C579.293,88.82 580.547,83.393 582,77.52C583.44,71.653 584.99,65.733 586.65,59.76C586.174,59.737 585.697,59.794 585.24,59.93C584.87,60.124 584.557,60.41 584.33,60.76L543.66,122.84C539.507,124.367 535.133,125.208 530.71,125.33C528.282,125.39 525.877,124.847 523.71,123.75C521.622,122.587 520.07,120.651 519.39,118.36C519.723,115.373 520.027,112.04 520.3,108.36C520.573,104.68 520.85,100.863 521.13,96.91C521.403,92.983 521.653,89.027 521.88,85.04C522.107,81.053 522.273,77.18 522.38,73.42C522.487,71.207 522.543,69.16 522.55,67.28L522.55,61.42C522.526,60.845 522.387,60.28 522.14,59.76C521.848,59.494 521.451,59.373 521.06,59.43C512.093,75.59 504.32,89.173 497.74,100.18C492.368,109.357 486.524,118.249 480.23,126.82C475.137,133.567 470.543,138.41 466.45,141.35C462.357,144.29 458.357,145.757 454.45,145.75C450.274,145.839 446.258,144.113 443.45,141.02C440.517,137.867 438.497,133.577 437.39,128.15C438.137,128.401 438.923,128.513 439.71,128.48C444.377,128.48 448.943,126.517 453.41,122.59C458.521,117.956 463.112,112.779 467.1,107.15C471.767,100.79 476.553,93.54 481.46,85.4C486.367,77.26 491.597,68.987 497.15,60.58C499.275,57.158 501.811,54.008 504.7,51.2C506.89,49.184 509.773,48.084 512.75,48.13C514.713,48.172 516.664,48.451 518.56,48.96C518.656,48.975 518.753,48.983 518.85,48.983C519.869,48.983 520.711,48.149 520.72,47.13C519.947,38.163 517.237,31.303 512.59,26.55C507.943,21.797 501.36,19.417 492.84,19.41C486.003,19.377 479.266,21.062 473.25,24.31C467.18,27.563 461.798,31.961 457.4,37.26C448.014,48.701 442.881,63.051 442.88,77.85C442.88,82.943 444.43,86.277 447.53,87.85C445.735,90.332 443.408,92.381 440.72,93.85C438.125,95.275 435.21,96.018 432.25,96.01C428.09,96.114 424.054,94.559 421.04,91.69C417.993,88.817 416.473,84.223 416.48,77.91C416.456,70.961 417.606,64.057 419.88,57.49C422.159,50.941 425.285,44.718 429.18,38.98C433.13,33.146 437.785,27.823 443.04,23.13C448.277,18.428 454.011,14.31 460.14,10.85C466.137,7.446 472.514,4.761 479.14,2.85C485.541,0.984 492.172,0.025 498.84,-0C515.107,-0 527.337,5.037 535.53,15.11C543.723,25.183 547.817,40.897 547.81,62.25C547.81,63.803 547.783,65.85 547.73,68.39C547.677,70.93 547.593,73.53 547.48,76.19C547.367,78.857 547.257,81.32 547.15,83.58C547.043,85.84 546.933,87.473 546.82,88.48C547.296,88.504 547.773,88.447 548.23,88.31C548.572,88.133 548.838,87.838 548.98,87.48L592.64,23.74C593.973,21.527 595.19,20.42 596.29,20.42C596.62,20.42 597.09,20.42 597.7,20.34C598.178,20.309 598.651,20.225 599.11,20.09C600.77,18.21 603.317,17.27 606.75,17.27C609.281,17.318 611.794,17.708 614.22,18.43C617.36,19.372 620.367,20.71 623.17,22.41Z" style="fill:rgb(192,45,40);fill-rule:nonzero;"/>
    </g>
    <g transform="matrix(0.331397,0,0,0.331397,0,0)">
        <path d="M522.57,61.42C522.546,60.845 522.407,60.28 522.16,59.76C521.868,59.494 521.471,59.373 521.08,59.43C512.113,75.59 504.34,89.173 497.76,100.18C492.388,109.357 486.544,118.249 480.25,126.82C475.16,133.57 462.49,113.51 467.14,107.15C471.79,100.79 476.57,93.54 481.5,85.4C486.43,77.26 491.64,69 497.18,60.59C499.305,57.168 501.841,54.018 504.73,51.21C506.92,49.194 509.803,48.094 512.78,48.14C514.743,48.182 516.694,48.461 518.59,48.97C518.686,48.985 518.783,48.993 518.88,48.993C519.899,48.993 520.741,48.159 520.75,47.14C520.493,43.743 519.842,40.387 518.81,37.14C518.34,35.7 517.95,34.83 517.81,34.42C521.06,41.04 522.31,50.05 522.57,56C522.61,57.57 522.57,61.42 522.57,61.42Z" style="fill:url(#_Linear1);fill-rule:nonzero;"/>
    </g>
    <g transform="matrix(0.331397,0,0,0.331397,0,0)">
        <path d="M599.1,20.09C597.56,22.79 589.95,49.89 586.65,59.76C586.089,59.698 585.52,59.781 585,60C580,63.5 566.06,66.43 563.86,65.62C569,58.35 587.62,31 592.63,23.74C592.95,23.22 594.46,20.45 596.28,20.42C596.4,20.42 596.71,20.42 597.47,20.36C598.022,20.33 598.568,20.24 599.1,20.09Z" style="fill:url(#_Linear2);fill-rule:nonzero;"/>
    </g>
    <defs>
        <linearGradient id="_Linear1" x1="0" y1="0" x2="1" y2="0" gradientUnits="userSpaceOnUse" gradientTransform="matrix(56.46,0,0,56.46,466.12,81.31)"><stop offset="0" style="stop-color:black;stop-opacity:0"/><stop offset="0.67" style="stop-color:black;stop-opacity:0"/><stop offset="1" style="stop-color:black;stop-opacity:0.4"/></linearGradient>
        <linearGradient id="_Linear2" x1="0" y1="0" x2="1" y2="0" gradientUnits="userSpaceOnUse" gradientTransform="matrix(29.96,-51.89,51.89,29.96,565.9,78.92)"><stop offset="0" style="stop-color:black;stop-opacity:0"/><stop offset="0.4" style="stop-color:black;stop-opacity:0"/><stop offset="1" style="stop-color:rgb(61,61,61);stop-opacity:0.41"/></linearGradient>
    </defs>
</svg>
