<?xml version="1.0" encoding="utf-8"?>
<svg viewBox="0 0 1550 500" xmlns="http://www.w3.org/2000/svg" xmlns:bx="https://boxy-svg.com">
  <rect x="30" y="237.094" width="149.444" height="227.906" style="stroke-width: 5px; fill-opacity: 0; stroke: rgb(0, 0, 0);"/>
  <line style="stroke: rgb(0, 0, 0); stroke-width: 3px;" x1="51.463" y1="275.21" x2="155.608" y2="275.21"/>
  <line style="stroke: rgb(0, 0, 0); stroke-width: 3px;" x1="51.463" y1="297.191" x2="155.608" y2="297.191"/>
  <line style="stroke: rgb(0, 0, 0); stroke-width: 3px;" x1="51.463" y1="319.172" x2="155.608" y2="319.172"/>
  <line style="stroke: rgb(0, 0, 0); stroke-width: 3px;" x1="51.463" y1="341.153" x2="155.608" y2="341.153"/>
  <line style="stroke: rgb(0, 0, 0); stroke-width: 3px;" x1="51.463" y1="363.133" x2="155.608" y2="363.133"/>
  <line style="stroke: rgb(0, 0, 0); stroke-width: 3px;" x1="51.463" y1="385.114" x2="155.608" y2="385.114"/>
  <line style="stroke: rgb(0, 0, 0); stroke-width: 3px;" x1="51.463" y1="407.094" x2="155.608" y2="407.094"/>
  <line style="stroke: rgb(0, 0, 0); stroke-width: 3px;" x1="51.463" y1="429.076" x2="155.608" y2="429.076"/>
  <path d="M 207.266 354.195 H 254.033 L 254.033 341.007 L 289.238 358.591 L 254.033 376.176 L 254.033 362.987 H 207.266 V 354.195 Z" style="" bx:shape="arrow 207.266 341.007 81.972 35.169 8.792 35.205 0 1@c0787b06"/>
  <path d="M 499.404 200.154 H 546.171 L 546.171 186.966 L 581.376 204.55 L 546.171 222.135 L 546.171 208.946 H 499.404 V 200.154 Z" style="" bx:shape="arrow 499.404 186.966 81.972 35.169 8.792 35.205 0 1@809e277d"/>
  <path style="" transform="matrix(-0.843132, 0.842269, -0.843132, -0.842269, 1281.40625, -126.084282)" d="M 575.222 164.627 L 580.778 164.627 L 581.95 173.113 A 14.759 14.759 0 0 1 585.262 174.485 L 592.091 169.314 L 596.02 173.242 L 590.849 180.071 A 14.759 14.759 0 0 1 592.22 183.383 L 600.706 184.555 L 600.706 190.111 L 592.22 191.284 A 14.759 14.759 0 0 1 590.849 194.595 L 596.02 201.425 L 592.091 205.353 L 585.262 200.182 A 14.759 14.759 0 0 1 581.95 201.554 L 580.778 210.039 L 575.222 210.039 L 574.05 201.554 A 14.759 14.759 0 0 1 570.738 200.182 L 563.909 205.353 L 559.98 201.425 L 565.151 194.595 A 14.759 14.759 0 0 1 563.78 191.284 L 555.294 190.111 L 555.294 184.555 L 563.78 183.383 A 14.759 14.759 0 0 1 565.151 180.071 L 559.98 173.242 L 563.909 169.314 L 570.738 174.485 A 14.759 14.759 0 0 1 574.05 173.113 Z M 578 180.522 A 6.812 6.812 0 0 0 578 194.145 A 6.812 6.812 0 0 0 578 180.522" bx:shape="cog 578 187.333 6.812 14.759 22.706 0.38 8 1@299fbf6a"/>
  <path d="M 359.21 213.326 H 385.779 L 385.779 200.124 L 405.778 217.727 L 385.779 235.329 L 385.779 222.127 H 359.21 V 213.326 Z" style="" transform="matrix(0, -1, 1, 0, 418.316925, 514.17572)" bx:shape="arrow 359.21 200.124 46.568 35.205 8.801 19.999 0 1@fc3446f2"/>
  <path d="M 1472.082 38.685 C 1472.082 38.685 1464.094 89.395 1445.147 88.738 C 1434.548 88.37 1425.907 68.433 1431.998 59.759 C 1442.445 44.884 1486.394 64.117 1486.394 64.117 C 1486.394 64.117 1502.326 70.694 1510.214 68.879 C 1514.263 67.947 1522.887 64.103 1523.303 58.561 C 1523.722 52.961 1517.105 44.48 1511.779 46.259 C 1498.909 50.557 1516.82 76.923 1507.454 86.737 C 1502.094 92.353 1484.427 90.297 1484.427 90.297" style="stroke: rgb(0, 0, 0); fill: rgb(216, 216, 216); fill-opacity: 0; stroke-width: 5px;" transform="matrix(-0.773365, 0.63396, -0.63396, -0.773365, 2659.640988, -821.445808)"/>
  <circle style="" cx="1084.005" cy="358.114" r="7.727" transform="matrix(1, 0, 0, 0.998976, 0, 0.015361)"/>
  <circle style="" cx="1107.202" cy="358.114" r="7.727" transform="matrix(1, 0, 0, 0.998976, 0, 0.015361)"/>
  <circle style="" cx="1130.398" cy="358.114" r="7.727" transform="matrix(1, 0, 0, 0.998976, 0, 0.015361)"/>
  <rect x="322.399" y="237.094" width="149.444" height="227.906" style="stroke-width: 5px; fill-opacity: 0; stroke: rgb(0, 0, 0);"/>
  <line style="stroke: rgb(0, 0, 0); stroke-width: 3px;" x1="343.862" y1="205.267" x2="448.008" y2="205.267"/>
  <line style="stroke: rgb(0, 0, 0); stroke-width: 3px;" x1="343.862" y1="297.191" x2="448.008" y2="297.191"/>
  <line style="stroke: rgb(0, 0, 0); stroke-width: 3px;" x1="343.862" y1="319.172" x2="448.008" y2="319.172"/>
  <line style="stroke: rgb(0, 0, 0); stroke-width: 3px;" x1="343.862" y1="341.153" x2="448.008" y2="341.153"/>
  <line style="stroke: rgb(0, 0, 0); stroke-width: 3px;" x1="343.862" y1="363.133" x2="448.008" y2="363.133"/>
  <line style="stroke: rgb(0, 0, 0); stroke-width: 3px;" x1="343.862" y1="385.114" x2="448.008" y2="385.114"/>
  <line style="stroke: rgb(0, 0, 0); stroke-width: 3px;" x1="343.862" y1="407.094" x2="448.008" y2="407.094"/>
  <line style="stroke: rgb(0, 0, 0); stroke-width: 3px;" x1="343.862" y1="429.076" x2="448.008" y2="429.076"/>
  <path d="M 875.15 200.154 H 921.917 L 921.917 186.966 L 957.122 204.55 L 921.917 222.135 L 921.917 208.946 H 875.15 V 200.154 Z" style="" bx:shape="arrow 875.15 186.966 81.972 35.169 8.792 35.205 0 1@5d5bc9ed"/>
  <path style="" transform="matrix(-0.843132, 0.842269, -0.843132, -0.842269, 1657.151611, -126.084282)" d="M 575.222 164.627 L 580.778 164.627 L 581.95 173.113 A 14.759 14.759 0 0 1 585.262 174.485 L 592.091 169.314 L 596.02 173.242 L 590.849 180.071 A 14.759 14.759 0 0 1 592.22 183.383 L 600.706 184.555 L 600.706 190.111 L 592.22 191.284 A 14.759 14.759 0 0 1 590.849 194.595 L 596.02 201.425 L 592.091 205.353 L 585.262 200.182 A 14.759 14.759 0 0 1 581.95 201.554 L 580.778 210.039 L 575.222 210.039 L 574.05 201.554 A 14.759 14.759 0 0 1 570.738 200.182 L 563.909 205.353 L 559.98 201.425 L 565.151 194.595 A 14.759 14.759 0 0 1 563.78 191.284 L 555.294 190.111 L 555.294 184.555 L 563.78 183.383 A 14.759 14.759 0 0 1 565.151 180.071 L 559.98 173.242 L 563.909 169.314 L 570.738 174.485 A 14.759 14.759 0 0 1 574.05 173.113 Z M 578 180.522 A 6.812 6.812 0 0 0 578 194.145 A 6.812 6.812 0 0 0 578 180.522" bx:shape="cog 578 187.333 6.812 14.759 22.706 0.38 8 1@299fbf6a"/>
  <path d="M 359.21 213.326 H 385.779 L 385.779 200.124 L 405.778 217.727 L 385.779 235.329 L 385.779 222.127 H 359.21 V 213.326 Z" style="" transform="matrix(0, -1, 1, 0, 794.062256, 514.17572)" bx:shape="arrow 359.21 200.124 46.568 35.205 8.801 19.999 0 1@fc3446f2"/>
  <rect x="698.145" y="237.094" width="149.444" height="227.906" style="stroke-width: 5px; fill-opacity: 0; stroke: rgb(0, 0, 0);"/>
  <line style="stroke: rgb(0, 0, 0); stroke-width: 3px;" x1="719.608" y1="205.267" x2="823.753" y2="205.267"/>
  <line style="stroke: rgb(0, 0, 0); stroke-width: 3px;" x1="719.608" y1="319.172" x2="823.753" y2="319.172"/>
  <line style="stroke: rgb(0, 0, 0); stroke-width: 3px;" x1="719.608" y1="341.153" x2="823.753" y2="341.153"/>
  <line style="stroke: rgb(0, 0, 0); stroke-width: 3px;" x1="719.608" y1="363.133" x2="823.753" y2="363.133"/>
  <line style="stroke: rgb(0, 0, 0); stroke-width: 3px;" x1="719.608" y1="385.114" x2="823.753" y2="385.114"/>
  <line style="stroke: rgb(0, 0, 0); stroke-width: 3px;" x1="719.608" y1="407.094" x2="823.753" y2="407.094"/>
  <line style="stroke: rgb(0, 0, 0); stroke-width: 3px;" x1="719.608" y1="429.076" x2="823.753" y2="429.076"/>
  <path d="M 1354.987 200.154 H 1401.754 L 1401.754 186.966 L 1436.959 204.55 L 1401.754 222.135 L 1401.754 208.946 H 1354.987 V 200.154 Z" style="" bx:shape="arrow 1354.987 186.966 81.972 35.169 8.792 35.205 0 1@6f965843"/>
  <path style="" transform="matrix(-0.843132, 0.842269, -0.843132, -0.842269, 2136.988525, -126.084282)" d="M 575.222 164.627 L 580.778 164.627 L 581.95 173.113 A 14.759 14.759 0 0 1 585.262 174.485 L 592.091 169.314 L 596.02 173.242 L 590.849 180.071 A 14.759 14.759 0 0 1 592.22 183.383 L 600.706 184.555 L 600.706 190.111 L 592.22 191.284 A 14.759 14.759 0 0 1 590.849 194.595 L 596.02 201.425 L 592.091 205.353 L 585.262 200.182 A 14.759 14.759 0 0 1 581.95 201.554 L 580.778 210.039 L 575.222 210.039 L 574.05 201.554 A 14.759 14.759 0 0 1 570.738 200.182 L 563.909 205.353 L 559.98 201.425 L 565.151 194.595 A 14.759 14.759 0 0 1 563.78 191.284 L 555.294 190.111 L 555.294 184.555 L 563.78 183.383 A 14.759 14.759 0 0 1 565.151 180.071 L 559.98 173.242 L 563.909 169.314 L 570.738 174.485 A 14.759 14.759 0 0 1 574.05 173.113 Z M 578 180.522 A 6.812 6.812 0 0 0 578 194.145 A 6.812 6.812 0 0 0 578 180.522" bx:shape="cog 578 187.333 6.812 14.759 22.706 0.38 8 1@299fbf6a"/>
  <path d="M 359.21 213.326 H 385.779 L 385.779 200.124 L 405.778 217.727 L 385.779 235.329 L 385.779 222.127 H 359.21 V 213.326 Z" style="" transform="matrix(0, -1, 1, 0, 1273.89917, 514.17572)" bx:shape="arrow 359.21 200.124 46.568 35.205 8.801 19.999 0 1@fc3446f2"/>
  <rect x="1177.982" y="237.094" width="149.444" height="227.906" style="stroke-width: 5px; fill-opacity: 0; stroke: rgb(0, 0, 0);"/>
  <line style="stroke: rgb(0, 0, 0); stroke-width: 3px;" x1="1199.445" y1="205.267" x2="1303.59" y2="205.267"/>
  <path d="M 955.275 74.868 C 955.275 74.868 971.207 81.446 979.095 79.63 C 983.142 78.699 991.767 74.854 992.182 69.313 C 992.601 63.714 985.984 55.232 980.658 57.011 C 967.789 61.309 985.699 87.675 976.334 97.489 C 970.974 103.106 953.306 101.049 953.306 101.049" style="stroke: rgb(0, 0, 0); fill: rgb(216, 216, 216); fill-opacity: 0; stroke-width: 5px;" transform="matrix(-0.773365, 0.63396, -0.63396, -0.773365, 1775.189551, -476.425601)"/>
  <path d="M 617.378 53.143 C 604.508 57.441 622.418 83.807 613.053 93.62 C 607.693 99.238 590.026 97.18 590.026 97.18" style="stroke: rgb(0, 0, 0); fill: rgb(216, 216, 216); fill-opacity: 0; stroke-width: 5px;" transform="matrix(-0.773365, 0.63396, -0.63396, -0.773365, 1118.350318, -249.108124)"/>
</svg>